# xmcd
# 
# Track frame offsets:
#     150
#     42070
#     61500
#     71352
#     95357
#     127462
#     139970
#     192897
#     212845
#     277355
# 
# Disc length: 4643
# 
# Revision: 2
# Processed by: cddbd v1.5.2PL0 Copyright (c) Steve Scherf et al.
# Submitted via: BonkEnc v1.0.8
# 
DISCID=9c12210a
DTITLE=Hermeto Pascoal - Slaves Mass
DYEAR=1977
DGENRE=Brazil
TTITLE0=Mixing Pot
TTITLE1=Slaves Mass
TTITLE2=Little Cry for Him
TTITLE3=Cannon
TTITLE4=Just Listen
TTITLE5=That Waltz
TTITLE6=Cherry Jam
TTITLE7=Open Field
TTITLE8=Pica Pau (Take 1)
TTITLE9=Star Trap (Part 2)
EXTD=YEAR: 1977
EXTT0=
EXTT1=
EXTT2=
EXTT3=
EXTT4=
EXTT5=
EXTT6=
EXTT7=
EXTT8=
EXTT9=
PLAYORDER=
